<?xml version="1.0" standalone="no"?>
<!DOCTYPE svg PUBLIC "-//W3C//DTD SVG 20010904//EN"
 "http://www.w3.org/TR/2001/REC-SVG-20010904/DTD/svg10.dtd">
<svg version="1.0" xmlns="http://www.w3.org/2000/svg"
 width="750.000000pt" height="638.000000pt" viewBox="0 0 750.000000 638.000000"
 preserveAspectRatio="xMidYMid meet">

<g transform="translate(0.000000,638.000000) scale(0.100000,-0.100000)"
fill="#000000" stroke="none">
<path d="M0 3190 l0 -3190 3750 0 3750 0 0 3190 0 3190 -3750 0 -3750 0 0
-3190z m3781 2063 c0 -5 14 -64 32 -132 l32 -125 130 -1 c81 -1 155 -8 196
-18 90 -22 236 -86 298 -130 l50 -36 95 101 c65 69 100 99 111 95 30 -12 14
-40 -75 -134 l-90 -95 58 -63 c111 -122 178 -274 189 -429 6 -80 -10 -211 -27
-221 -4 -2 -49 7 -101 21 -52 14 -168 45 -259 69 -202 53 -517 137 -790 210
-113 30 -244 65 -292 77 -49 12 -88 27 -88 33 0 30 42 129 79 188 83 131 219
235 384 292 42 15 77 30 77 32 0 2 -13 61 -30 130 -16 69 -27 129 -24 134 6
11 44 12 45 2z m-714 -305 c83 -81 133 -212 133 -348 0 -80 -17 -190 -30 -190
-13 0 -33 -59 -27 -82 4 -13 -12 -81 -39 -166 -25 -79 -44 -145 -41 -148 2 -2
22 15 43 38 35 38 43 58 78 188 21 80 41 148 45 152 6 7 71 -8 461 -113 107
-28 276 -73 375 -99 99 -26 277 -74 395 -105 118 -32 235 -63 260 -68 l45 -10
65 68 c36 37 82 76 102 86 35 18 128 27 128 13 0 -4 -20 -29 -45 -55 -53 -57
-60 -101 -22 -143 37 -42 88 -38 142 11 l40 36 5 -39 5 -39 30 42 c17 23 32
42 35 43 4 0 12 -17 19 -37 8 -21 41 -64 73 -97 44 -44 56 -61 46 -67 -7 -5
-17 -9 -21 -9 -19 0 -98 -66 -123 -102 l-27 -39 -23 47 c-21 43 -80 114 -95
114 -8 0 -503 -497 -507 -511 -2 -5 2 -9 10 -9 38 -1 40 -15 18 -96 -11 -44
-23 -84 -25 -91 -3 -8 -13 -9 -33 -3 l-30 8 -31 -125 c-47 -185 -76 -230 -163
-253 -40 -11 -38 -12 -241 43 l-39 10 -171 -170 c-95 -94 -182 -176 -194 -182
-12 -6 -46 -11 -76 -11 -94 0 -167 74 -167 170 0 60 21 94 123 197 50 51 89
94 86 96 -2 3 -29 12 -59 20 l-55 16 -205 -204 c-196 -194 -207 -204 -252
-210 -106 -16 -188 55 -188 161 0 66 28 108 160 239 100 100 108 111 87 117
-12 4 -48 14 -80 23 -72 21 -120 65 -135 128 -10 37 -9 56 8 118 26 100 26
102 -12 79 -18 -11 -41 -20 -51 -20 -11 0 -24 -13 -32 -34 -21 -50 -93 -154
-114 -166 -13 -6 -29 -7 -44 -1 -13 5 -55 17 -93 25 -183 44 -240 60 -255 75
-11 10 -19 41 -23 88 -5 61 0 100 34 255 113 522 190 849 206 872 10 16 18 49
19 81 3 83 70 211 154 296 68 68 100 89 186 121 66 24 101 16 152 -34z m2623
-232 c0 -11 -19 -15 -25 -6 -3 5 1 10 9 10 9 0 16 -2 16 -4z m-10 -111 c0 -8
-9 -15 -20 -15 -20 0 -26 11 -13 23 12 13 33 7 33 -8z m-40 -111 c0 -11 -263
-274 -274 -274 -13 0 -96 81 -96 93 0 5 39 49 87 98 l87 89 98 0 c54 0 98 -3
98 -6z m-236 -384 c-13 -13 -209 183 -199 200 5 8 40 -21 109 -89 67 -67 97
-104 90 -111z m-204 18 c0 -6 7 -19 16 -29 15 -17 14 -20 -12 -43 l-29 -24
-26 31 -25 30 30 28 c30 27 46 29 46 7z m220 -114 c0 -25 -7 -50 -18 -64 l-18
-22 -18 28 c-10 16 -27 36 -38 45 -20 15 -19 16 16 37 20 12 39 29 43 38 11
28 33 -13 33 -62z m-347 -35 c-27 -27 -80 22 -67 63 6 19 8 19 42 -16 27 -26
33 -39 25 -47z m31 -248 c16 -17 15 -19 -8 -34 -22 -15 -25 -15 -42 4 -17 19
-17 20 2 34 25 19 28 18 48 -4z m-2583 -593 c52 -18 85 -46 104 -89 15 -33 16
-47 7 -93 -17 -83 -65 -174 -140 -261 -72 -85 -115 -120 -136 -112 -8 3 -24
43 -36 89 -33 118 -34 311 -3 380 37 82 118 116 204 86z m2727 -1695 l3 -53
-60 0 -61 0 0 48 c0 27 3 52 7 56 4 4 30 6 58 4 l50 -3 3 -52z m192 -177 c0
-245 1 -251 57 -240 29 6 31 4 35 -32 3 -22 2 -43 -2 -47 -13 -15 -118 -20
-148 -8 -48 20 -52 41 -52 306 l0 245 55 0 55 0 0 -224z m-3404 190 c62 -29
110 -84 129 -150 43 -144 -12 -287 -129 -342 -46 -22 -65 -24 -193 -24 l-143
0 0 270 0 270 143 0 c128 0 147 -2 193 -24z m2664 -81 l0 -105 115 0 115 0 0
105 0 105 60 0 60 0 0 -270 0 -270 -60 0 -60 0 0 115 0 115 -115 0 -115 0 0
-115 0 -115 -60 0 -60 0 0 270 0 270 60 0 60 0 0 -105z m1000 20 l0 -65 45 0
45 0 0 -40 0 -40 -45 0 -45 0 0 -97 c0 -54 4 -104 9 -112 6 -9 20 -11 48 -6
36 6 41 4 47 -17 14 -52 8 -67 -31 -77 -72 -20 -121 -14 -154 18 l-29 29 0
131 0 131 -30 0 c-28 0 -30 2 -30 40 0 38 2 40 30 40 l30 0 0 65 0 65 55 0 55
0 0 -65z m-3200 -77 c72 -37 84 -63 88 -184 2 -58 8 -104 13 -104 6 0 9 -21 7
-47 -3 -48 -3 -48 -41 -51 -29 -3 -42 2 -58 20 l-21 24 -46 -23 c-110 -56
-232 -3 -232 101 0 85 67 129 186 124 69 -3 74 -2 74 18 0 58 -68 79 -145 45
-61 -27 -61 -27 -81 10 -19 38 -13 45 58 70 74 25 144 24 198 -3z m438 -7 c32
-22 32 -22 32 -2 0 19 6 21 55 21 l55 0 0 -192 c0 -110 -5 -210 -11 -233 -15
-53 -74 -108 -132 -125 -74 -20 -166 -10 -223 26 -27 16 -50 37 -52 45 -1 8
11 25 27 37 l30 22 37 -25 c46 -31 93 -40 138 -25 44 14 66 44 66 88 l0 33
-30 -23 c-45 -33 -133 -36 -184 -6 -53 31 -96 111 -96 179 0 84 47 164 115
195 44 21 134 13 173 -15z m480 0 c32 -22 32 -22 32 -2 0 19 6 21 55 21 l55 0
0 -192 c0 -110 -5 -210 -11 -233 -15 -53 -74 -108 -132 -125 -74 -20 -166 -10
-223 26 -27 16 -50 37 -52 45 -1 8 11 25 27 37 l30 22 37 -25 c46 -31 93 -40
138 -25 44 14 66 44 66 88 l0 33 -30 -23 c-45 -33 -133 -36 -184 -6 -53 31
-96 111 -96 179 0 84 47 164 115 195 44 21 134 13 173 -15z m517 3 c58 -30 97
-91 103 -159 l4 -55 -156 0 c-86 0 -156 -2 -156 -5 0 -2 5 -16 12 -30 13 -29
55 -55 88 -55 27 0 80 27 80 42 0 11 71 4 98 -11 22 -12 -39 -76 -93 -97 -67
-25 -165 -15 -218 22 -87 62 -110 167 -59 265 23 43 38 59 82 82 47 24 64 28
115 25 35 -2 77 -12 100 -24z m403 -21 c-3 -47 -4 -48 -44 -56 -76 -15 -84
-30 -84 -172 l0 -125 -60 0 -60 0 0 195 0 195 55 0 c48 0 55 -2 55 -20 0 -18
2 -18 36 5 22 15 51 25 71 25 l34 0 -3 -47z m912 -158 l0 -195 -60 0 -60 0 0
195 0 195 60 0 60 0 0 -195z"/>
<path d="M3700 4748 c-27 -30 -26 -73 5 -103 30 -30 64 -32 99 -4 33 26 36 79
6 109 -27 27 -83 27 -110 -2z"/>
<path d="M4420 4560 c-30 -30 -27 -83 6 -109 15 -12 38 -21 51 -21 33 0 73 42
73 78 0 61 -86 96 -130 52z"/>
<path d="M2713 4175 c-45 -19 -60 -48 -78 -155 -9 -52 -29 -165 -45 -250 -62
-330 -80 -439 -74 -453 3 -8 16 -19 29 -25 19 -9 28 -7 49 9 14 11 26 27 26
36 0 9 11 46 24 83 14 39 25 89 24 118 0 54 11 83 48 122 29 31 154 372 154
420 0 45 -23 78 -66 96 -41 17 -50 17 -91 -1z"/>
<path d="M5387 4392 c-68 -69 -77 -82 -54 -82 16 0 137 121 137 138 0 22 -15
12 -83 -56z"/>
<path d="M1820 1211 l0 -171 68 0 c84 0 125 23 152 83 35 76 21 173 -32 224
-26 25 -38 28 -109 32 l-79 3 0 -171z"/>
<path d="M2350 1107 c-31 -16 -37 -52 -13 -79 14 -16 26 -19 56 -15 48 7 77
32 77 67 0 23 -5 29 -31 34 -45 9 -61 7 -89 -7z"/>
<path d="M2843 1242 c-40 -6 -73 -57 -73 -112 0 -41 5 -53 31 -79 34 -35 73
-40 118 -16 35 18 41 32 41 99 0 44 -4 56 -27 78 -30 27 -55 36 -90 30z"/>
<path d="M3323 1242 c-40 -6 -73 -57 -73 -112 0 -41 5 -53 31 -79 34 -35 73
-40 118 -16 35 18 41 32 41 99 0 44 -4 56 -27 78 -30 27 -55 36 -90 30z"/>
<path d="M3781 1247 c-22 -13 -50 -51 -51 -69 0 -5 43 -8 95 -8 105 0 114 7
73 55 -28 31 -83 41 -117 22z"/>
</g>
</svg>
