<?xml version="1.0" standalone="no"?>
<!DOCTYPE svg PUBLIC "-//W3C//DTD SVG 20010904//EN"
 "http://www.w3.org/TR/2001/REC-SVG-20010904/DTD/svg10.dtd">
<svg version="1.0" xmlns="http://www.w3.org/2000/svg"
 width="715.000000pt" height="349.000000pt" viewBox="0 0 715.000000 349.000000"
 preserveAspectRatio="xMidYMid meet">

<g transform="translate(0.000000,349.000000) scale(0.100000,-0.100000)"
fill="#000000" stroke="none">
<path d="M2707 3163 c-4 -3 -7 -28 -7 -54 l0 -48 -52 -3 -53 -3 -3 -52 -3 -52
-52 -3 -52 -3 -3 -52 -3 -52 -52 -3 -52 -3 -3 -52 -3 -52 -52 -3 -52 -3 -3
-52 -3 -52 -52 -3 -52 -3 -3 -52 -3 -52 -52 -3 -52 -3 0 -760 0 -760 52 -3 52
-3 3 -52 3 -52 52 -3 52 -3 3 -52 3 -52 52 -3 52 -3 3 -52 3 -52 52 -3 52 -3
3 -52 3 -52 52 -3 52 -3 3 -52 3 -52 52 -3 52 -3 3 -52 3 -52 760 0 760 0 3
52 3 52 52 3 52 3 0 165 0 165 -107 3 -108 3 0 -56 0 -55 -55 0 -55 0 0 -55 0
-55 -597 0 -598 0 0 52 0 53 -52 3 -52 3 -3 52 -3 52 -52 3 -52 3 -3 52 -3 52
-52 3 -52 3 -3 52 -3 52 -52 3 -52 3 -3 52 -3 52 -52 -1 -53 -1 0 652 0 653
53 -1 52 -2 3 52 3 52 52 3 52 3 3 52 3 52 52 3 52 3 3 52 3 52 52 3 52 3 3
52 3 52 52 3 52 3 3 53 3 52 649 0 649 0 3 -107 3 -108 105 0 105 0 3 168 2
167 -54 0 -55 0 -3 53 -3 52 -756 3 c-415 1 -759 -1 -762 -5z"/>
<path d="M4340 2450 c0 -41 3 -50 18 -50 15 -1 604 0 625 0 4 0 7 23 7 50 l0
50 -325 0 -325 0 0 -50z"/>
<path d="M3140 2345 l0 -55 -55 0 -55 0 0 -55 0 -55 -55 0 -55 0 0 -435 0
-435 55 0 55 0 0 -55 0 -55 55 0 55 0 0 -55 0 -55 325 0 325 0 0 55 0 55 55 0
55 0 0 160 0 160 -104 0 -105 0 -3 -52 -3 -53 -217 -3 -218 -2 0 335 0 335
218 -2 217 -3 3 -52 3 -53 105 0 104 0 0 160 0 160 -55 0 -55 0 0 55 0 55
-325 0 -325 0 0 -55z m540 -105 l0 -49 -205 -3 c-113 -2 -210 -1 -215 0 -6 2
-10 26 -10 53 l0 49 215 0 215 0 0 -50z m-440 -110 l0 -50 -50 0 -50 0 0 50 0
50 50 0 50 0 0 -50z m550 0 l0 -50 -50 0 -50 0 0 50 0 50 50 0 50 0 0 -50z
m-660 -375 c0 -173 1 -318 3 -322 1 -5 -22 -9 -50 -11 l-53 -3 0 325 0 326 50
0 50 0 0 -315z m110 -395 l0 -50 -50 0 -50 0 0 50 0 50 50 0 50 0 0 -50z m550
0 l0 -50 -50 0 -50 0 0 50 0 50 50 0 50 0 0 -50z m-110 -110 l0 -50 -215 0
-215 0 0 50 0 50 215 0 215 0 0 -50z"/>
<path d="M4237 2393 c-4 -3 -7 -28 -7 -55 l0 -48 -55 0 -55 0 0 -160 0 -160
55 0 55 0 0 -55 0 -55 110 0 110 0 0 55 0 55 163 -2 162 -3 0 -220 0 -220
-162 -3 -163 -2 0 55 0 55 -111 0 -110 0 3 -52 3 -53 103 -3 102 -3 0 -49 0
-50 -55 0 -56 0 3 -57 3 -58 52 -3 52 -3 3 -52 c2 -29 6 -51 11 -49 4 1 104 2
222 2 l215 0 0 49 0 50 53 3 52 3 3 52 3 52 52 3 52 3 0 330 0 330 -52 3 -52
3 -3 52 -3 52 -52 3 -53 3 0 50 0 49 -225 0 -225 0 0 -49 0 -50 -52 -3 -53 -3
-3 -57 -3 -58 56 0 55 0 0 -50 0 -50 -105 0 -105 0 0 160 0 160 55 0 55 0 0
55 0 55 -48 0 c-27 0 -52 -3 -55 -7z m643 -263 l0 -50 -215 0 -215 0 0 50 0
50 215 0 215 0 0 -50z m110 -385 l0 -325 -50 0 -50 0 0 325 0 325 50 0 50 0 0
-325z m-110 -385 l0 -50 -215 0 -215 0 0 50 0 50 215 0 215 0 0 -50z"/>
<path d="M4990 2345 l0 -55 55 0 55 0 0 -55 0 -55 55 0 55 0 0 -435 0 -435
-55 0 -55 0 0 -55 0 -55 -55 0 -55 0 0 -55 0 -55 55 0 55 0 0 55 0 55 55 0 55
0 0 55 0 55 54 0 c37 0 58 5 67 16 18 22 30 372 22 629 -7 223 -7 225 -90 225
l-53 0 0 55 0 55 -55 0 -55 0 0 55 0 55 -55 0 -55 0 0 -55z"/>
<path d="M4120 1360 l0 -160 54 0 55 0 3 -52 3 -53 53 -3 52 -3 0 55 0 56 -55
0 -55 0 0 160 0 160 -55 0 -55 0 0 -160z"/>
<path d="M4350 1092 c-6 -2 -10 -26 -10 -53 l0 -49 326 0 325 0 -3 50 -3 51
-313 2 c-171 1 -317 1 -322 -1z"/>
</g>
</svg>
